<svg width="40" height="40" viewBox="0 0 40 40" fill="none" xmlns="http://www.w3.org/2000/svg">
<path d="M9.28985 29.2654C11.0332 28.0564 12.7626 27.1289 14.4782 26.4828C16.1938 25.8366 18.0358 25.5136 20.0043 25.5136C21.9728 25.5136 23.8234 25.8392 25.5561 26.4904C27.2887 27.1417 29.0206 28.0666 30.7518 29.2654C31.9607 27.7587 32.8171 26.2566 33.3211 24.759C33.825 23.2614 34.077 21.6751 34.077 20C34.077 16.0038 32.73 12.6586 30.0361 9.9643C27.3423 7.27008 23.9974 5.92297 20.0017 5.92297C16.006 5.92297 12.6606 7.27008 9.96556 9.9643C7.27051 12.6586 5.92298 16.0038 5.92298 20C5.92298 21.6745 6.18031 23.2598 6.69498 24.7558C7.20967 26.2518 8.07463 27.755 9.28985 29.2654ZM19.9922 21.3197C18.3653 21.3197 16.9985 20.7635 15.8919 19.6512C14.7852 18.5388 14.2319 17.1714 14.2319 15.5488C14.2319 13.9263 14.7878 12.5598 15.8996 11.4493C17.0114 10.3387 18.3808 9.78347 20.0077 9.78347C21.6346 9.78347 23.0014 10.3413 24.1081 11.457C25.2148 12.5727 25.7681 13.9418 25.7681 15.5643C25.7681 17.1869 25.2122 18.5518 24.1004 19.6589C22.9885 20.7661 21.6191 21.3197 19.9922 21.3197ZM20.0136 36.9157C17.6935 36.9157 15.505 36.4723 13.4481 35.5854C11.3912 34.6985 9.59313 33.4855 8.05394 31.9465C6.51477 30.4075 5.30169 28.6125 4.41469 26.5618C3.52771 24.511 3.08423 22.3197 3.08423 19.9881C3.08423 17.6639 3.52837 15.4782 4.41664 13.4311C5.30492 11.384 6.51763 9.5919 8.05477 8.05476C9.59191 6.51762 11.386 5.30325 13.4371 4.41164C15.4882 3.52002 17.6798 3.07422 20.0119 3.07422C22.3361 3.07422 24.5217 3.52002 26.5688 4.41164C28.6159 5.30325 30.408 6.51762 31.9452 8.05476C33.4823 9.5919 34.6967 11.3847 35.5883 13.4333C36.4799 15.4818 36.9257 17.6662 36.9257 19.9863C36.9257 22.3064 36.4799 24.4953 35.5883 26.553C34.6967 28.6106 33.4823 30.408 31.9452 31.9452C30.408 33.4823 28.6152 34.695 26.5666 35.5833C24.5181 36.4716 22.3338 36.9157 20.0136 36.9157ZM20 34.077C21.5078 34.077 22.9743 33.8614 24.3994 33.4302C25.8245 32.9991 27.2454 32.2379 28.6621 31.1467C27.2388 30.1534 25.811 29.4011 24.3786 28.8899C22.9462 28.3788 21.4867 28.1232 20 28.1232C18.5133 28.1232 17.0554 28.3788 15.6264 28.8899C14.1973 29.4011 12.7711 30.1534 11.3478 31.1467C12.7645 32.2379 14.1837 32.9991 15.6055 33.4302C17.0273 33.8614 18.4921 34.077 20 34.077ZM20 18.7001C20.9236 18.7001 21.6793 18.4082 22.267 17.8243C22.8547 17.2403 23.1485 16.4844 23.1485 15.5566C23.1485 14.6288 22.8547 13.8712 22.267 13.2839C21.6793 12.6967 20.9236 12.4031 20 12.4031C19.0763 12.4031 18.3207 12.6967 17.733 13.2839C17.1453 13.8712 16.8514 14.6288 16.8514 15.5566C16.8514 16.4844 17.1453 17.2403 17.733 17.8243C18.3207 18.4082 19.0763 18.7001 20 18.7001Z" fill="#5C6670" fill-opacity="0.8"/>
</svg>
