<svg width="35" height="35" viewBox="0 0 35 35" fill="none" xmlns="http://www.w3.org/2000/svg">
<path d="M23.179 7.7854C22.9696 8.02439 22.8418 8.2981 22.7809 8.58036C22.6972 8.97029 22.738 9.37683 22.8636 9.73355C22.9354 9.93934 22.8141 10.1602 22.5917 10.2271C22.5482 10.2397 22.5042 10.2463 22.4612 10.2463L9.96182 10.2468V25.7947C9.98901 26.3271 10.082 26.6903 10.3028 26.8986C10.5213 27.1049 10.9085 27.2005 11.5327 27.2081L24.596 27.2065V23.6433C24.9114 23.6237 25.2045 23.515 25.4432 23.3424V24.4861H27.7998C28.0293 24.4876 28.218 24.6576 28.2223 24.8705C28.2468 26.0126 28.0897 26.8161 27.5937 27.3379C27.0935 27.8631 26.3105 28.0629 25.1039 27.9829C25.0767 27.9879 25.0484 27.9909 25.0196 27.9909L11.524 27.9889C10.6595 27.9784 10.0858 27.8103 9.69973 27.4465C9.30877 27.0777 9.15217 26.5479 9.11628 25.8118L9.1141 10.2468H6.84717C6.61336 10.2468 6.42358 10.0712 6.42358 9.85481L6.42685 9.806C6.45621 9.1967 6.60085 8.57382 6.91677 8.06213L6.932 8.03948C7.21856 7.58565 7.63834 7.22088 8.2256 7.02415C8.27291 7.00906 8.32076 7.00151 8.36807 7.00151L22.9919 7L23.0349 7.00201H23.0561C23.7581 7.00755 24.3584 7.11321 24.7977 7.4654C25.242 7.82112 25.4829 8.39118 25.4421 9.30437L25.4426 12.4113C25.1408 12.5778 24.8592 12.7574 24.5971 12.9486L24.5976 9.28727C24.6286 8.6347 24.496 8.25734 24.2453 8.05609C24.0093 7.86741 23.6357 7.79848 23.179 7.7854ZM22.0844 22.0806C21.7429 23.0708 21.2459 24.0242 21.166 24.9942L21.7581 24.9022C22.4759 22.2984 23.1746 20.5319 24.8266 18.2643C26.0647 16.5642 27.4513 15.1815 29.2821 14.0278C30.2571 13.4135 31.5142 12.7262 32.6795 12.4892C32.9976 12.4243 33.3239 12.3881 33.6599 12.3886C30.0798 13.4367 27.3491 15.4447 25.2779 18.3025C24.4329 19.4673 23.7211 20.7452 23.0816 22.0836L24.4889 22.2134L23.8886 21.991L25.9277 21.5311C25.1392 21.3379 24.3888 21.4788 24.1218 21.2273C26.2403 20.9777 27.9494 20.4217 29.1038 19.504C28.6416 19.4793 28.1109 19.4663 27.8259 19.3656C29.8248 18.5672 30.9112 17.3219 32.3288 16.1833C30.4028 16.7121 28.5839 16.7855 28.0288 16.4806C31.5077 16.457 33.6648 15.4044 34.2336 13.1162C34.2782 12.8701 34.2755 12.6261 34.2124 12.3841C33.8029 10.8108 30.7057 10.5018 29.8286 11.8845C29.653 12.1612 29.3941 12.4213 29.1891 12.7418L29.9895 11.0311C27.5176 12.0173 27.3855 12.9094 26.3023 15.6474C26.336 14.8364 26.5122 14.0907 26.7656 13.3803C23.689 14.7539 22.8821 17.6892 22.9267 20.1304C22.7603 19.2902 22.8359 18.2129 23.0577 16.9928C22.2067 17.9226 21.6646 18.9792 22.0164 20.4031L21.576 20.2597L21.8669 21.0159L21.2078 20.7855L22.0844 22.0806ZM12.8998 22.713C12.6692 22.713 12.4821 22.5384 12.4821 22.3226C12.4821 22.1072 12.6692 21.9327 12.8998 21.9327H18.2645C18.4945 21.9327 18.6815 22.1072 18.6815 22.3226C18.6815 22.5384 18.4945 22.713 18.2645 22.713H12.8998ZM12.8998 20.3422C12.6692 20.3422 12.4821 20.1676 12.4821 19.9518C12.4821 19.7365 12.6692 19.5619 12.8998 19.5619H19.8098C20.0404 19.5619 20.2274 19.7365 20.2274 19.9518C20.2274 20.1676 20.0404 20.3422 19.8098 20.3422H12.8998ZM12.7399 17.9714C12.4974 17.9714 12.3 17.7963 12.3 17.5805C12.3 17.3652 12.4974 17.1901 12.7399 17.1901H20.9381C21.1807 17.1901 21.378 17.3652 21.378 17.5805C21.378 17.7963 21.1807 17.9714 20.9381 17.9714H12.7399ZM12.8867 15.5971C12.6529 15.5971 12.4631 15.4235 12.4631 15.2097C12.4631 14.9954 12.6529 14.8218 12.8867 14.8218H21.6505C21.8843 14.8218 22.074 14.9954 22.074 15.2097C22.074 15.4235 21.8843 15.5971 21.6505 15.5971H12.8867ZM12.8998 13.2314C12.6654 13.2314 12.4756 13.0553 12.4756 12.8389C12.4756 12.6226 12.6654 12.447 12.8998 12.447H21.663C21.8968 12.447 22.0871 12.6226 22.0871 12.8389C22.0871 13.0553 21.8968 13.2314 21.663 13.2314H12.8998ZM25.4432 25.2705V27.2146C26.2006 27.2352 26.6819 27.1104 26.9575 26.8201C27.2457 26.5173 27.3637 26.0051 27.3784 25.2705H25.4432ZM21.9501 8.4274C21.9974 8.20753 22.0735 7.99118 22.1828 7.78439H8.44256C8.09673 7.91672 7.84279 8.14716 7.66281 8.43143L7.65139 8.45105C7.46923 8.74639 7.36048 9.09809 7.30665 9.46236H21.9283C21.8734 9.12576 21.8761 8.77205 21.9501 8.4274Z" fill="#0284D5"/>
</svg>
