<svg width="22" height="22" viewBox="0 0 22 22" fill="none" xmlns="http://www.w3.org/2000/svg">
<rect width="22" height="22" rx="2" fill="#C72222"/>
<g clip-path="url(#clip0_10_163)">
<path d="M14.1911 6.81789H12.4789C12.3934 6.07724 11.7633 5.5 11.0001 5.5C10.2369 5.5 9.60684 6.07721 9.52142 6.81789H7.80909C7.11616 6.81789 6.55249 7.38172 6.55249 8.07463V8.13911C6.55249 8.66863 6.8822 9.12185 7.34666 9.30651V15.2433C7.34666 15.9362 7.9104 16.5 8.60328 16.5H13.3969C14.0898 16.5 14.6535 15.9361 14.6535 15.2433V9.30654C15.118 9.12185 15.4477 8.66863 15.4477 8.13913V8.07465C15.4477 7.38172 14.884 6.81789 14.1911 6.81789ZM11.0001 6.096C11.4342 6.096 11.7965 6.40713 11.8766 6.81789H10.1237C10.2038 6.4071 10.5662 6.096 11.0001 6.096ZM14.0575 15.2433C14.0575 15.6076 13.7611 15.904 13.3969 15.904H8.60326C8.23906 15.904 7.94264 15.6076 7.94264 15.2433V9.39585H14.0575V15.2433ZM14.8517 8.13911C14.8517 8.50343 14.5553 8.79987 14.1911 8.79987H7.80909C7.44489 8.79987 7.14847 8.50343 7.14847 8.13911V8.07463C7.14847 7.71031 7.44489 7.41387 7.80909 7.41387H14.1911C14.5553 7.41387 14.8517 7.71031 14.8517 8.07463L14.8517 8.13911Z" fill="white"/>
<path d="M9.40248 15.1417C9.56706 15.1417 9.70047 15.0083 9.70047 14.8437V11.4884C9.70047 11.3239 9.56704 11.1904 9.40248 11.1904C9.23793 11.1904 9.10449 11.3239 9.10449 11.4884V14.8437C9.10447 15.0083 9.2379 15.1417 9.40248 15.1417Z" fill="white"/>
<path d="M11.0001 15.1417C11.1647 15.1417 11.2982 15.0083 11.2982 14.8437V11.4884C11.2982 11.3239 11.1647 11.1904 11.0001 11.1904C10.8356 11.1904 10.7021 11.3239 10.7021 11.4884V14.8437C10.7021 15.0083 10.8356 15.1417 11.0001 15.1417Z" fill="white"/>
<path d="M12.5978 15.1417C12.7624 15.1417 12.8958 15.0083 12.8958 14.8437V11.4884C12.8958 11.3239 12.7624 11.1904 12.5978 11.1904C12.4332 11.1904 12.2998 11.3239 12.2998 11.4884V14.8437C12.2998 15.0083 12.4333 15.1417 12.5978 15.1417Z" fill="white"/>
</g>
<defs>
<clipPath id="clip0_10_163">
<rect width="11" height="11" fill="white" transform="translate(5.5 5.5)"/>
</clipPath>
</defs>
</svg>
