<svg width="35" height="35" viewBox="0 0 35 35" fill="none" xmlns="http://www.w3.org/2000/svg">
<path fill-rule="evenodd" clip-rule="evenodd" d="M12.908 28.5C11.9407 28.5 11.0129 28.1444 10.3289 27.5115C9.64485 26.8786 9.26056 26.0201 9.26056 25.125V9.375C9.26056 8.47989 9.64485 7.62145 10.3289 6.98851C11.0129 6.35558 11.9407 6 12.908 6H20.203C21.1704 6 22.0981 6.35558 22.7821 6.98851C23.4662 7.62145 23.8505 8.47989 23.8505 9.375V25.125C23.8505 26.0201 23.4662 26.8786 22.7821 27.5115C22.0981 28.1444 21.1704 28.5 20.203 28.5H12.908ZM25.4225 22.5454C25.6505 22.7563 25.9597 22.8748 26.2821 22.8748C26.6045 22.8748 26.9137 22.7563 27.1417 22.5454L32.005 18.0454C32.2329 17.8344 32.361 17.5483 32.361 17.25C32.361 16.9517 32.2329 16.6656 32.005 16.4546L27.1417 11.9546C26.9124 11.7497 26.6053 11.6363 26.2865 11.6389C25.9677 11.6414 25.6628 11.7597 25.4373 11.9683C25.2119 12.1769 25.084 12.4591 25.0813 12.754C25.0785 13.049 25.201 13.3332 25.4225 13.5454L28.2104 16.125H17.7713C17.4489 16.125 17.1396 16.2435 16.9116 16.4545C16.6836 16.6655 16.5555 16.9516 16.5555 17.25C16.5555 17.5484 16.6836 17.8345 16.9116 18.0455C17.1396 18.2565 17.4489 18.375 17.7713 18.375H28.2104L25.4225 20.9546C25.1946 21.1656 25.0665 21.4517 25.0665 21.75C25.0665 22.0483 25.1946 22.3344 25.4225 22.5454Z" fill="#0284D5"/>
</svg>
