<svg width="80" height="80" viewBox="0 0 80 80" fill="none" xmlns="http://www.w3.org/2000/svg">
<path d="M72 0H8C3.58172 0 0 3.58172 0 8V72C0 76.4183 3.58172 80 8 80H72C76.4183 80 80 76.4183 80 72V8C80 3.58172 76.4183 0 72 0Z" fill="url(#paint0_linear_61_10987)"/>
<path d="M28.7744 20.7774C28.6969 20.7791 28.6196 20.7864 28.5431 20.7993H25.5994C25.3874 20.7963 25.1769 20.8354 24.9801 20.9145C24.7834 20.9936 24.6043 21.1109 24.4533 21.2598C24.3023 21.4087 24.1824 21.5861 24.1006 21.7817C24.0187 21.9773 23.9766 22.1872 23.9766 22.3993C23.9766 22.6113 24.0187 22.8212 24.1006 23.0168C24.1824 23.2125 24.3023 23.3899 24.4533 23.5387C24.6043 23.6876 24.7834 23.805 24.9801 23.884C25.1769 23.9631 25.3874 24.0023 25.5994 23.9993H27.1994V27.1993C27.1994 34.5782 32.1789 38.4847 34.3431 39.9993C32.1789 41.5139 27.1994 45.4203 27.1994 52.7993V55.9993H25.5994C25.3874 55.9963 25.1769 56.0354 24.9801 56.1145C24.7834 56.1936 24.6043 56.3109 24.4533 56.4598C24.3023 56.6087 24.1824 56.7861 24.1006 56.9817C24.0187 57.1773 23.9766 57.3872 23.9766 57.5993C23.9766 57.8113 24.0187 58.0212 24.1006 58.2169C24.1824 58.4125 24.3023 58.5899 24.4533 58.7387C24.6043 58.8876 24.7834 59.005 24.9801 59.084C25.1769 59.1631 25.3874 59.2023 25.5994 59.1993H28.5306C28.7034 59.2278 28.8797 59.2278 29.0525 59.1993H50.9306C51.1034 59.2278 51.2797 59.2278 51.4525 59.1993H54.3994C54.6114 59.2023 54.8219 59.1631 55.0187 59.084C55.2154 59.005 55.3945 58.8876 55.5455 58.7387C55.6965 58.5899 55.8164 58.4125 55.8982 58.2169C55.98 58.0212 56.0222 57.8113 56.0222 57.5993C56.0222 57.3872 55.98 57.1773 55.8982 56.9817C55.8164 56.7861 55.6965 56.6087 55.5455 56.4598C55.3945 56.3109 55.2154 56.1936 55.0187 56.1145C54.8219 56.0354 54.6114 55.9963 54.3994 55.9993H52.7994V52.7993C52.7994 45.4203 47.8199 41.5139 45.6556 39.9993C47.8199 38.4847 52.7994 34.5782 52.7994 27.1993V23.9993H54.3994C54.6114 24.0023 54.8219 23.9631 55.0187 23.884C55.2154 23.805 55.3945 23.6876 55.5455 23.5387C55.6965 23.3899 55.8164 23.2125 55.8982 23.0168C55.98 22.8212 56.0222 22.6113 56.0222 22.3993C56.0222 22.1872 55.98 21.9773 55.8982 21.7817C55.8164 21.5861 55.6965 21.4087 55.5455 21.2598C55.3945 21.1109 55.2154 20.9936 55.0187 20.9145C54.8219 20.8354 54.6114 20.7963 54.3994 20.7993H51.4463C51.3564 20.7843 51.2655 20.7769 51.1744 20.7774C51.0969 20.7791 51.0196 20.7864 50.9431 20.7993H29.0463C28.9564 20.7843 28.8655 20.7769 28.7744 20.7774ZM30.5431 28.7993H49.4556C48.483 34.813 42.3775 38.6274 42.3775 38.6274C42.1407 38.7696 41.9447 38.9707 41.8086 39.2111C41.6726 39.4515 41.601 39.723 41.601 39.9993C41.601 40.2755 41.6726 40.5471 41.8086 40.7875C41.9447 41.0279 42.1407 41.2289 42.3775 41.3711C42.3775 41.3711 48.483 45.1856 49.4556 51.1993H46.1713C45.4575 48.4437 42.978 46.3993 39.9994 46.3993C37.0208 46.3993 34.5413 48.4437 33.8275 51.1993H30.5431C31.5157 45.1856 37.6213 41.3711 37.6213 41.3711C37.8581 41.2289 38.0541 41.0279 38.1901 40.7875C38.3262 40.5471 38.3977 40.2755 38.3977 39.9993C38.3977 39.723 38.3262 39.4515 38.1901 39.2111C38.0541 38.9707 37.8581 38.7696 37.6213 38.6274C37.6213 38.6274 31.5157 34.813 30.5431 28.7993Z" fill="white"/>
<defs>
<linearGradient id="paint0_linear_61_10987" x1="71.6073" y1="80.721" x2="7.81171" y2="-5.20781" gradientUnits="userSpaceOnUse">
<stop stop-color="#0284D5"/>
<stop offset="1" stop-color="#6AA8FA"/>
</linearGradient>
</defs>
</svg>
