<svg width="40" height="40" viewBox="0 0 40 40" fill="none" xmlns="http://www.w3.org/2000/svg">
<path d="M6.23822 31.8859V29.0372H9.82789V16.5662C9.82789 14.1725 10.5287 12.0345 11.9303 10.1523C13.3318 8.26999 15.1875 7.08139 17.4973 6.58648V5.43214C17.4973 4.74342 17.7429 4.17328 18.2342 3.72173C18.7255 3.2702 19.3141 3.04443 20 3.04443C20.686 3.04443 21.2746 3.2702 21.7658 3.72173C22.2571 4.17328 22.5027 4.74342 22.5027 5.43214V6.58648C24.8192 7.08139 26.6851 8.26832 28.1006 10.1473C29.516 12.0262 30.2238 14.1659 30.2238 16.5662V29.0372H33.7718V31.8859H6.23822ZM20.005 36.9158C19.0932 36.9158 18.2956 36.5816 17.6121 35.9132C16.9287 35.2448 16.587 34.4414 16.587 33.5028H23.423C23.423 34.446 23.0876 35.2507 22.4166 35.9167C21.7457 36.5828 20.9418 36.9158 20.005 36.9158ZM12.6667 29.0372H27.375V16.5662C27.375 14.5106 26.6667 12.7606 25.25 11.3162C23.8333 9.87174 22.0972 9.14952 20.0417 9.14952C17.9861 9.14952 16.2431 9.87174 14.8125 11.3162C13.382 12.7606 12.6667 14.5106 12.6667 16.5662V29.0372Z" fill="#5C6670" fill-opacity="0.8"/>
</svg>
