<svg width="22" height="22" viewBox="0 0 22 22" fill="none" xmlns="http://www.w3.org/2000/svg">
<rect width="22" height="22" rx="2" fill="#0284D5"/>
<path d="M10.8535 14.1875C8.17068 14.1875 6.38318 11.5637 6.38318 11.5637C6.38318 11.5637 8.17223 8.93982 10.8535 8.93982C13.5363 8.93982 15.3238 11.5637 15.3238 11.5637C15.3238 11.5637 13.5363 14.1875 10.8535 14.1875ZM10.8535 9.83357C9.87129 9.83357 9.07529 10.6125 9.07529 11.573C9.07529 12.5334 9.87129 13.3124 10.8535 13.3124C11.8357 13.3124 12.6332 12.5334 12.6332 11.573C12.6332 10.6125 11.8357 9.83357 10.8535 9.83357Z" fill="white"/>
<path d="M9.94419 11.5837C9.94419 11.3556 10.0404 11.1291 10.2049 10.9677C10.3693 10.8063 10.6005 10.7132 10.8333 10.7132C11.066 10.7132 11.2972 10.8063 11.4617 10.9677C11.6262 11.1291 11.7224 11.3556 11.7224 11.5837C11.7224 11.8118 11.6262 12.0384 11.4617 12.1997C11.2972 12.3611 11.066 12.4542 10.8333 12.4542C10.6005 12.4542 10.3693 12.3611 10.2049 12.1997C10.0388 12.0384 9.94419 11.8118 9.94419 11.5837ZM6.87503 17.0347H6.08989C5.43044 17.0347 4.88892 16.4652 4.88892 15.767V15.0486H5.38389C5.38079 15.2906 5.37613 15.5311 5.37303 15.7732C5.37303 16.1906 5.69577 16.5319 6.08989 16.5335L6.87503 16.5381V17.0347ZM14.8195 6.11106H15.6046C16.2641 6.11106 16.8056 6.68051 16.8056 7.37875V8.09717H16.3106C16.3137 7.85511 16.3184 7.6146 16.3215 7.37255C16.3215 6.95515 15.9987 6.61379 15.6046 6.61224L14.8195 6.60758V6.11106ZM6.87503 6.11106H6.08989C5.43044 6.11106 4.88892 6.68051 4.88892 7.37875V8.09717H5.38389C5.38079 7.85511 5.37613 7.6146 5.37303 7.37255C5.37303 6.95515 5.69577 6.61379 6.08989 6.61224L6.87503 6.60758V6.11106ZM14.8195 17.0347H15.6046C16.2641 17.0347 16.8056 16.4652 16.8056 15.767V15.0486H16.3106C16.3137 15.2906 16.3184 15.5311 16.3215 15.7732C16.3215 16.1906 15.9987 16.5319 15.6046 16.5335L14.8195 16.5381V17.0347Z" fill="white"/>
</svg>
