<svg width="37" height="35" viewBox="0 0 37 35" fill="none" xmlns="http://www.w3.org/2000/svg">
<path d="M17.2353 24.6898C16.8465 23.1412 15.5327 21.7855 15.5369 21.7549C15.5643 21.7656 13.9342 22.7396 14.1003 24.4573C14.3063 26.1889 15.4287 27.092 16.3526 27.0822C17.3174 27.0832 17.6315 26.2687 17.2353 24.6898Z" fill="#0284D5"/>
<path d="M12.3556 23.6525C13.1427 23.8681 13.6515 23.2787 13.7534 21.869C13.8533 20.4842 13.0492 19.0196 13.0576 18.9968C13.0765 19.0089 11.4769 19.5034 11.191 20.9803C10.9272 22.473 11.5935 23.4518 12.3556 23.6525Z" fill="#0284D5"/>
<path d="M9.45264 17.246C8.9061 18.4387 9.21506 19.368 9.79095 19.6928C10.3817 20.0332 10.9545 19.6693 11.3759 18.5126C11.7869 17.3758 11.4201 15.9472 11.4327 15.9316C11.4433 15.9423 10.016 16.0673 9.45264 17.246Z" fill="#0284D5"/>
<path d="M8.83454 13.6828C8.10303 14.6494 8.17564 15.5261 8.60964 15.9254C9.05428 16.3402 9.64181 16.1349 10.2629 15.179C10.8746 14.2366 10.8452 12.862 10.8578 12.8513C10.863 12.862 9.57769 12.7268 8.83454 13.6828Z" fill="#0284D5"/>
<path d="M8.3238 12.3608C8.61589 12.7823 9.14669 12.7147 9.84558 11.9922C10.5361 11.2784 10.7558 10.0642 10.7674 10.0569C10.7716 10.0652 9.71944 9.771 8.92806 10.4809C8.14295 11.2035 8.03896 11.9494 8.3238 12.3608Z" fill="#0284D5"/>
<path d="M11.6565 26.5654C9.6459 26.0442 8.227 27.1012 8.23026 27.129C8.16817 27.1378 10.41 29.6457 12.7327 29.9312C14.9892 30.2196 15.5474 29.4493 15.1647 28.6174C14.7749 27.7446 13.6735 27.0488 11.6565 26.5654Z" fill="#0284D5"/>
<path d="M10.9292 24.6579C10.8641 23.8619 10.1525 23.0427 8.59912 22.2359C7.05315 21.4 5.59843 22.0113 5.59424 22.0332C5.55124 22.0293 6.76831 24.5043 8.56553 25.2162C10.3175 25.9198 10.9944 25.4243 10.9292 24.6579Z" fill="#0284D5"/>
<path d="M6.2839 20.2047C7.53777 21.114 8.21673 20.8607 8.35752 20.2228C8.50562 19.564 8.1168 18.744 7.01325 17.7911C5.91918 16.8176 4.5759 17.0646 4.57073 17.0792C4.54126 17.0705 4.99532 19.2838 6.2839 20.2047Z" fill="#0284D5"/>
<path d="M7.22022 16.1225C7.49558 15.571 7.33362 14.7692 6.55485 13.7263C5.79079 12.6691 4.54953 12.6541 4.54116 12.6643C4.52025 12.6541 4.46345 14.6759 5.39464 15.7174C6.30164 16.7453 6.95322 16.6568 7.22022 16.1225Z" fill="#0284D5"/>
<path d="M7.11396 12.2984C7.4503 11.8817 7.46612 11.1747 6.99834 10.1779C6.54225 9.17329 5.50172 8.98654 5.49335 8.99386C5.47969 8.98503 5.0887 10.6573 5.66786 11.6683C6.23336 12.6655 6.7903 12.7029 7.11396 12.2984Z" fill="#0284D5"/>
<path d="M17.7923 28.4286C17.7829 28.4247 17.7756 28.4185 17.7661 28.4146C10.3207 24.6398 6.60232 16.7217 8.473 9.17358C8.47934 9.14933 8.4679 9.13076 8.46986 9.10802C8.82719 9.01797 9.19085 8.5512 9.54086 7.62051C9.96557 6.49629 9.7774 5.26031 9.78165 5.25015C9.78897 5.2389 8.52882 5.87343 8.04953 7.13282C7.67116 8.14322 7.75521 8.75447 8.02215 9.00055C8.01162 9.0219 7.99907 9.04089 7.99371 9.06472C5.85918 16.7508 9.4189 25.1329 17.2101 29.3243C17.6368 29.5533 18.115 29.5193 18.2633 29.2645C18.4094 29.0107 18.1907 28.6441 17.7923 28.4286Z" fill="#0284D5"/>
<path d="M25.6791 21.7546C25.6844 21.7852 24.3707 23.141 23.9817 24.6896C23.5854 26.2685 23.8986 27.083 24.8646 27.082C25.7885 27.0917 26.911 26.1887 27.1169 24.4571C27.2829 22.7393 25.6519 21.7653 25.6791 21.7546Z" fill="#0284D5"/>
<path d="M27.4627 21.869C27.5646 23.2787 28.0743 23.8681 28.8616 23.6525C29.6225 23.4518 30.2899 22.473 30.026 20.9803C29.7391 19.5034 28.1406 19.0089 28.1594 18.9968C28.169 19.0196 27.3629 20.4842 27.4627 21.869Z" fill="#0284D5"/>
<path d="M31.4262 19.6928C32.0021 19.368 32.3112 18.4387 31.7645 17.246C31.2013 16.0674 29.7739 15.9423 29.7845 15.9316C29.7971 15.9472 29.4292 17.3758 29.8403 18.5126C30.2616 19.6693 30.8344 20.0332 31.4262 19.6928Z" fill="#0284D5"/>
<path d="M32.6064 15.9254C33.0425 15.5261 33.113 14.6494 32.3815 13.6828C31.6394 12.7269 30.353 12.862 30.3582 12.8513C30.372 12.862 30.3415 14.2366 30.9531 15.179C31.5743 16.1349 32.1618 16.3402 32.6064 15.9254Z" fill="#0284D5"/>
<path d="M32.8923 12.3608C33.1771 11.9494 33.0741 11.2036 32.288 10.481C31.4976 9.77102 30.4445 10.0652 30.4487 10.057C30.4603 10.0642 30.681 11.2784 31.3704 11.9922C32.0693 12.7147 32.6001 12.7823 32.8923 12.3608Z" fill="#0284D5"/>
<path d="M29.5606 26.5654C27.5437 27.0487 26.4422 27.7445 26.0513 28.6174C25.6687 29.4494 26.2278 30.2196 28.4833 29.9312C30.8072 29.6458 33.0489 27.1378 32.9859 27.1291C32.9889 27.1012 31.5702 26.0442 29.5606 26.5654Z" fill="#0284D5"/>
<path d="M32.6179 22.2359C31.0635 23.0426 30.3519 23.8619 30.2879 24.6579C30.2216 25.4243 30.8995 25.9197 32.6516 25.2162C34.4489 24.5043 35.6659 22.0293 35.6217 22.0331C35.6175 22.0113 34.164 21.4 32.6179 22.2359Z" fill="#0284D5"/>
<path d="M34.2029 17.7911C33.0993 18.7441 32.7104 19.564 32.8596 20.2228C32.9994 20.8608 33.6794 21.114 34.9333 20.2047C36.2218 19.2838 36.6749 17.0704 36.6454 17.0792C36.6413 17.0646 35.298 16.8176 34.2029 17.7911Z" fill="#0284D5"/>
<path d="M34.6622 13.7263C33.8824 14.7692 33.7205 15.571 33.9959 16.1225C34.264 16.6568 34.9145 16.7453 35.8215 15.7174C36.7527 14.6759 36.697 12.6541 36.6749 12.6643C36.6664 12.6541 35.4252 12.6691 34.6622 13.7263Z" fill="#0284D5"/>
<path d="M35.5482 11.6683C36.1272 10.6573 35.7364 8.98509 35.7227 8.99386C35.7152 8.98654 34.6748 9.17329 34.2176 10.1779C33.751 11.1747 33.7667 11.8817 34.102 12.2984C34.4257 12.703 34.9838 12.6655 35.5482 11.6683Z" fill="#0284D5"/>
<path d="M33.2234 9.06472C33.217 9.04089 33.2044 9.0219 33.1949 9.00055C33.4619 8.75447 33.546 8.14322 33.1676 7.13282C32.6873 5.87343 31.4292 5.2389 31.4355 5.25015C31.4387 5.26031 31.2506 6.49629 31.6751 7.62051C32.0263 8.55127 32.3888 9.01797 32.7472 9.10802C32.7493 9.13076 32.7388 9.14933 32.7441 9.17358C34.6137 16.7217 30.8964 24.6398 23.451 28.4145C23.4425 28.4184 23.4331 28.4246 23.4236 28.4286C23.0253 28.6441 22.8067 29.0106 22.9548 29.2644C23.1009 29.5193 23.5801 29.5532 24.006 29.3242C31.7982 25.1329 35.357 16.7509 33.2234 9.06472Z" fill="#0284D5"/>
<path d="M28.7324 15.8276L27.6308 13.9361C27.6119 13.5802 27.3305 11.4481 27.1337 10.8192C26.2265 7.91999 23.8787 5.83423 21.1324 5.83423C15.1123 5.83423 13.0197 8.70299 13.7616 13.4922C14.2 16.3133 15.5042 18.8239 17.722 20.1426C17.722 20.1426 17.6852 22.4758 17.6768 23.7563C17.6753 23.9864 17.662 24.2155 17.8113 24.3978C17.9616 24.5796 18.196 24.687 18.4441 24.687H21.8555C22.174 24.687 22.554 24.5281 22.5882 24.2324C22.7091 23.1871 22.934 21.1496 22.934 21.1496H25.1505C25.7612 21.1496 26.314 20.8077 26.5463 20.2845C26.8763 19.5453 27.3008 18.3462 27.5173 16.7956H28.1069C28.3582 16.7956 28.5883 16.6746 28.7166 16.4761C28.8447 16.2779 28.8511 16.0308 28.7324 15.8276Z" fill="#0284D5"/>
</svg>
