<svg width="24" height="24" viewBox="0 0 24 24" fill="none" xmlns="http://www.w3.org/2000/svg">
<path d="M19.894 21.1423L13.2831 14.5374C12.7871 14.9585 12.2071 15.2869 11.5431 15.5228C10.8791 15.7586 10.1695 15.8765 9.41411 15.8765C7.58353 15.8765 6.03395 15.2416 4.76536 13.9717C3.49678 12.7017 2.86249 11.1695 2.86249 9.37492C2.86249 7.58035 3.49745 6.0481 4.76739 4.77817C6.0373 3.50825 7.57371 2.87329 9.37661 2.87329C11.1795 2.87329 12.7118 3.50825 13.9734 4.77817C15.2349 6.0481 15.8657 7.5816 15.8657 9.37867C15.8657 10.1008 15.7521 10.7922 15.5247 11.4529C15.2974 12.1136 14.9563 12.7336 14.5016 13.313L21.1375 19.8988L19.894 21.1423ZM9.39124 14.1733C10.7201 14.1733 11.8475 13.7046 12.7735 12.7672C13.6995 11.8298 14.1625 10.699 14.1625 9.37492C14.1625 8.05082 13.6992 6.92007 12.7726 5.98267C11.846 5.04525 10.7189 4.57654 9.39124 4.57654C8.04967 4.57654 6.91003 5.04525 5.97231 5.98267C5.0346 6.92007 4.56574 8.05082 4.56574 9.37492C4.56574 10.699 5.0343 11.8298 5.97144 12.7672C6.90855 13.7046 8.04849 14.1733 9.39124 14.1733Z" fill="#0284D5"/>
</svg>
