<svg width="20" height="20" viewBox="0 0 20 20" fill="none" xmlns="http://www.w3.org/2000/svg">
<g clip-path="url(#clip0_21_2790)">
<path d="M9.42969 0.968747C7.6875 1.25 6.34375 2.40625 5.75 4.125C4.99219 6.3125 6.13281 9.45312 8.15625 10.8125C8.83594 11.2656 9.21875 11.3828 10 11.3828C10.7812 11.3828 11.1562 11.2578 11.8516 10.8047C13.3828 9.78125 14.4531 7.67969 14.4687 5.6875C14.4766 4.53125 14.2031 3.69531 13.5312 2.74218C12.6406 1.49218 10.8984 0.734372 9.42969 0.968747Z" fill="#0284D5"/>
<path d="M5.59375 11.1562C3.84375 11.8203 2.28906 12.6641 1.69531 13.2578C1.45312 13.5 1.36719 13.6641 1.16406 14.2812C1.03125 14.6953 0.882812 15.2266 0.835937 15.4766C0.765625 15.875 0.765625 15.9609 0.867187 16.2422C1.67187 18.3359 7.96094 19.6328 13.4609 18.8359C16.4766 18.3984 18.7188 17.3672 19.1484 16.2266C19.2812 15.8672 19.2422 15.5391 18.9062 14.4531C18.6328 13.5937 18.4844 13.3437 17.9297 12.9219C17.3672 12.4922 15.5078 11.5547 14.3281 11.1172L13.4922 10.8047L13.1797 11.1016C12.5625 11.6875 11.7969 12.125 11.0156 12.3281C10.3984 12.4922 9.25781 12.4453 8.65625 12.2344C8.05469 12.0234 7.39062 11.6172 6.91406 11.1797C6.69531 10.9766 6.50781 10.8125 6.49219 10.8125C6.47656 10.8203 6.07812 10.9688 5.59375 11.1562Z" fill="#0284D5"/>
</g>
<defs>
<clipPath id="clip0_21_2790">
<rect width="20" height="20" fill="white"/>
</clipPath>
</defs>
</svg>
