<?xml version="1.0" encoding="UTF-8"?>
<svg id="Layer_1" data-name="Layer 1" xmlns="http://www.w3.org/2000/svg" viewBox="0 0 435.58 413.47">
  <defs>
    <style>
      .cls-1, .cls-2 {
      stroke-width: 0px;
      }

      .cls-2 {
      fill: #0284d5;
      }
    </style>
  </defs>
  <g>
    <path class="cls-1" d="m123.59,226.52v-47.54h6.45v41.23h10.19v6.32h-16.64Z" />
    <path class="cls-1"
      d="m145.22,185.26c-.79-.79-1.19-1.75-1.19-2.89s.4-2.09,1.19-2.89c.79-.79,1.75-1.19,2.89-1.19s2.09.4,2.89,1.19c.79.79,1.19,1.76,1.19,2.89s-.4,2.1-1.19,2.89-1.76,1.19-2.89,1.19-2.09-.4-2.89-1.19Zm-.24,6.42h6.25v34.84h-6.25v-34.84Z" />
    <path class="cls-1"
      d="m158.36,226.52v-34.84h5.3l.27,3.4c1.4-2.72,3.67-4.08,6.79-4.08,3.31,0,5.57,1.52,6.79,4.55,1.36-3.03,3.71-4.55,7.06-4.55,2.31,0,4.15.81,5.54,2.45,1.38,1.63,2.07,3.94,2.07,6.93v26.15h-6.11v-25.2c0-1.49-.32-2.65-.95-3.46-.63-.81-1.54-1.22-2.72-1.22s-2.14.4-2.89,1.19c-.75.79-1.14,1.91-1.19,3.36v25.33h-6.11v-25.2c0-1.49-.32-2.65-.95-3.46-.63-.81-1.54-1.22-2.72-1.22s-2.21.42-2.95,1.26c-.75.84-1.12,1.98-1.12,3.43v25.2h-6.11Z" />
    <path class="cls-1"
      d="m210.66,227.2c-2.99,0-5.16-1.18-6.52-3.53l-.2,2.85h-5.3v-47.54h6.11v14.94c1.49-1.95,3.53-2.92,6.11-2.92s4.52.84,6.08,2.51c1.56,1.68,2.34,3.96,2.34,6.86v17.25c0,2.85-.81,5.16-2.45,6.93-1.63,1.77-3.69,2.65-6.18,2.65Zm-1.7-5.71c1.27,0,2.29-.43,3.06-1.29.77-.86,1.15-2.04,1.15-3.53v-15.21c0-1.49-.4-2.67-1.19-3.53-.79-.86-1.8-1.29-3.02-1.29s-2.23.44-3.02,1.32c-.79.88-1.19,2.05-1.19,3.5v15.21c0,1.49.4,2.67,1.19,3.53.79.86,1.8,1.29,3.02,1.29Z" />
    <path class="cls-1"
      d="m225.97,185.26c-.79-.79-1.19-1.75-1.19-2.89s.4-2.09,1.19-2.89c.79-.79,1.75-1.19,2.89-1.19s2.09.4,2.89,1.19c.79.79,1.19,1.76,1.19,2.89s-.4,2.1-1.19,2.89c-.79.79-1.76,1.19-2.89,1.19s-2.1-.4-2.89-1.19Zm-.24,6.42h6.25v34.84h-6.25v-34.84Z" />
    <path class="cls-1"
      d="m248.42,227.2c-2.85,0-5.23-.93-7.13-2.79-1.9-1.86-2.85-4.28-2.85-7.27v-15.89c0-2.99.99-5.44,2.95-7.37,1.97-1.92,4.38-2.89,7.23-2.89s5.07.93,6.93,2.78c1.86,1.86,2.78,4.28,2.78,7.27v4.21h-5.91v-4.08c0-1.36-.36-2.46-1.09-3.29-.73-.84-1.68-1.26-2.85-1.26s-2.07.42-2.82,1.26c-.75.84-1.12,1.94-1.12,3.29v15.76c0,1.4.37,2.51,1.12,3.33.75.82,1.69,1.22,2.82,1.22s2.13-.41,2.85-1.22c.72-.81,1.09-1.92,1.09-3.33v-4.35h5.91v4.35c0,2.99-.96,5.45-2.89,7.37s-4.27,2.89-7.03,2.89Z" />
    <path class="cls-1"
      d="m275.11,226.52l9.64-47.54h6.25l9.58,47.54h-6.72l-1.83-10.66h-8.69l-1.9,10.66h-6.32Zm8.96-15.89h7.13l-3.53-20.04-3.6,20.04Z" />
    <path class="cls-1" d="m305,178.97h6.66v47.54h-6.66v-47.54Z" />
  </g>
  <path class="cls-2"
    d="m315.15,350.28c-1.72-.64-3.58-1.01-5.55-1.01s-3.84.37-5.55,1.01c-1.72.67-3.29,1.61-4.57,2.83l-.11.07c-.73.67-1.42,1.45-1.97,2.29-.29.44-.58.91-.84,1.41h-23.05v-18.44c-3.54,1.51-7.23,2.66-10.99,3.36-.66.13-1.28.24-1.94.34v20.66c0,1.65.73,3.13,1.9,4.21s2.78,1.75,4.57,1.75h29.73c.22.4.47.81.77,1.21.51.71,1.1,1.38,1.75,1.99l.11.1c1.31,1.21,2.92,2.22,4.71,2.89,1.72.64,3.58,1.01,5.55,1.01s3.76-.34,5.44-.98l.11-.03c1.79-.67,3.36-1.68,4.71-2.89,1.31-1.21,2.41-2.69,3.14-4.34.69-1.58,1.1-3.3,1.1-5.11s-.4-3.5-1.1-5.11c-.73-1.65-1.83-3.13-3.14-4.34-1.39-1.18-3-2.19-4.78-2.86h0ZM227.09,91.89c-3.94,2.62-7.6,6.16-10.78,10.73-.15.24-.37.44-.62.57-.99.57-2.3.3-2.92-.57-3.18-4.58-6.83-8.11-10.78-10.73-4.24-2.83-8.8-4.61-13.51-5.48h-.07c-4.6-.87-9.31-.87-13.84-.13-4.78.77-9.42,2.39-13.59,4.61-4.13,2.22-7.85,5.08-10.96,8.38-3,3.2-5.41,6.86-6.98,10.8h0c-.26.61-.47,1.24-.69,1.92-.18.61-.4,1.28-.55,1.95-.18.87-.99,1.51-2.01,1.55-4.89.67-9.75,2.32-14.28,4.78-4.6,2.52-8.88,5.96-12.57,10.06-3.65,4.1-6.72,8.95-8.91,14.33-2.05,5.05-3.29,10.6-3.54,16.49-.04.77-.04,1.51-.04,2.29,0,.71.04,1.45.04,2.22.04.64-.26,1.31-.88,1.72-3,1.99-5.7,4.04-8.11,6.16-2.45,2.19-4.6,4.44-6.47,6.76-3.03,3.8-5.26,7.77-6.76,11.78-1.57,4.17-2.34,8.45-2.41,12.65-.04,4.04.55,8.04,1.79,11.91,1.24,3.94,3.14,7.77,5.59,11.34h0c1.39,2.05,2.96,4.07,4.68,5.96,1.75,1.92,3.65,3.73,5.7,5.45.51.44.8,1.14.66,1.82-.58,2.56-.88,5.08-.99,7.57-.07,2.56.07,5.08.44,7.54.69,4.51,2.12,8.82,4.13,12.79,2.12,4.24,4.89,8.11,8.11,11.51,3.1,3.33,6.65,6.22,10.45,8.61,3.84,2.42,7.89,4.31,12.05,5.62,1.86.57,3.76,1.04,5.7,1.38,1.83.34,3.65.54,5.44.61.99-.03,1.9.61,2.12,1.55.95,4,2.7,7.77,5.11,11.17,2.52,3.57,5.7,6.73,9.35,9.35,4.6,3.3,10.01,5.79,15.71,7.1,5.37,1.24,11.03,1.48,16.58.4,4.97-.94,9.79-2.89,14.25-5.99,4.09-2.86,7.89-6.7,11.07-11.67.18-.3.47-.54.84-.71,1.02-.5,2.3-.13,2.85.81,2.63,4.51,5.84,8.11,9.42,10.83,3.87,2.93,8.15,4.91,12.64,6.06,5.73,1.45,11.72,1.45,17.53.34,6.21-1.18,12.2-3.67,17.35-7.1,4.05-2.66,7.63-5.92,10.48-9.62,2.7-3.47,4.71-7.33,5.88-11.41.15-.77.8-1.45,1.72-1.58,5.37-.87,10.67-2.93,15.52-5.99,4.86-3.06,9.28-7.1,12.89-11.91,3.32-4.44,5.99-9.56,7.71-15.14,1.61-5.22,2.37-10.87,2.12-16.82-.07-.67.26-1.35.91-1.75,3.14-1.99,5.92-4.07,8.4-6.19,2.52-2.22,4.75-4.51,6.65-6.9h0c2.92-3.63,5.08-7.4,6.57-11.27,1.53-4,2.34-8.07,2.48-12.15.11-3.94-.4-7.84-1.5-11.67-1.1-3.87-2.81-7.6-5.04-11.14l-.07-.07c-1.46-2.32-3.18-4.54-5.08-6.7-1.9-2.15-4.05-4.17-6.36-6.09-.55-.44-.84-1.14-.69-1.85.51-2.32.84-4.64.95-6.93.11-2.32.04-4.61-.22-6.86-.55-4.68-1.9-9.12-3.87-13.26-2.08-4.37-4.86-8.41-8.11-11.94-3.14-3.43-6.76-6.43-10.63-8.92-3.87-2.49-8-4.44-12.2-5.75l-.11-.03c-2.23-.71-4.49-1.21-6.72-1.55h-.07c-2.19-.34-4.38-.47-6.54-.44-.99.07-1.94-.54-2.19-1.48-.37-1.38-.84-2.73-1.39-4.04-.58-1.35-1.24-2.66-2.01-3.97-1.97-3.36-4.57-6.46-7.6-9.12-3.1-2.73-6.65-5.05-10.45-6.83-3.91-1.82-8.18-3.1-12.57-3.67-4.16-.54-8.44-.47-12.64.34-4.71,1.04-9.35,2.83-13.59,5.65h0Zm59.72,37.88c.26-.74.99-1.31,1.9-1.38,1.53-.1,3.1-.03,4.68.2,1.61.24,3.21.61,4.82,1.11,3.03.94,6.06,2.39,8.88,4.21,2.78,1.78,5.41,3.97,7.67,6.46l.04.07c2.37,2.59,4.38,5.48,5.88,8.65,1.42,2.96,2.37,6.12,2.78,9.45.26,2.22.26,4.54-.04,6.9-.26,2.19-.8,4.44-1.64,6.7l-.04.13c-.51,1.41-.47,2.89,0,4.21.51,1.35,1.46,2.56,2.81,3.36l.11.07c2.56,1.75,4.82,3.67,6.79,5.69,2.05,2.05,3.8,4.27,5.26,6.56,1.61,2.52,2.85,5.15,3.62,7.84.8,2.66,1.17,5.35,1.06,8.01-.07,2.76-.66,5.52-1.72,8.24-1.02,2.59-2.52,5.15-4.49,7.64l-.04.03c-1.79,2.25-4.05,4.47-6.72,6.59-2.56,2.02-5.52,3.94-8.91,5.79l-.11.07c-1.35.71-2.34,1.78-2.92,3.03s-.77,2.62-.47,3.97l.04.27c.69,5.15.37,10.06-.77,14.53-1.24,4.88-3.4,9.25-6.21,12.99-2.16,2.86-4.64,5.32-7.31,7.27-2.74,2.02-5.7,3.5-8.73,4.41h-.04c-1.1.3-2.3-.27-2.63-1.28-4.13-12.42-11.25-16.42-23.3-22.14l-.26-.13c-1.68-.74-3.51-.81-5.15-.34-1.64.47-3.07,1.51-3.91,3.03l-.11.2c-.8,1.55-.88,3.23-.37,4.74.55,1.51,1.72,2.86,3.4,3.67,10.08,4.74,17.53,8.34,17.42,19.99-.04,3.47-1.21,6.83-3.18,9.86-2.08,3.2-5.08,6.06-8.55,8.38-3.54,2.36-7.52,4.07-11.62,4.91-3.91.84-7.93.87-11.69-.07-6.36-1.61-10.48-5.52-13.26-10.26-2.63-4.51-4.09-9.76-5.15-14.53-.07-.17-.07-.37-.07-.54,0-2.42-2.05-4-4.71-4.71-1.17-.34-2.45-.47-3.69-.47s-2.52.17-3.69.47c-2.63.74-4.68,2.32-4.68,4.71,0,.17-.04.3-.07.47-2.05,7.47-5,13.09-8.47,17.13-4.05,4.74-8.8,7.33-13.7,8.28-3.58.67-7.27.5-10.78-.34-3.69-.91-7.2-2.56-10.26-4.71-3.03-2.19-5.55-4.84-7.31-7.84-1.68-2.86-2.67-6.02-2.67-9.25,0-12.25,8.04-16.35,18.67-21.36,1.68-.81,2.85-2.15,3.4-3.67.55-1.55.44-3.26-.4-4.84-.88-1.55-2.34-2.62-3.98-3.13-1.64-.47-3.47-.4-5.15.34l-.11.03c-12.53,5.89-20.02,10.19-24.51,23.01-.26.84-1.13,1.48-2.12,1.45-1.24-.03-2.48-.17-3.76-.4-1.24-.24-2.48-.54-3.65-.94-2.96-.94-5.92-2.32-8.69-4.07-2.74-1.75-5.3-3.84-7.56-6.26-2.34-2.49-4.35-5.28-5.88-8.34-1.46-2.86-2.48-5.92-3-9.12v-.07c-.37-2.36-.44-4.81-.15-7.33.26-2.36.8-4.81,1.72-7.23l.04-.1c.51-1.38.47-2.83.04-4.1l-.04-.07c-.47-1.35-1.42-2.52-2.74-3.36l-.07-.07c-2.34-1.61-4.46-3.33-6.32-5.22-1.9-1.88-3.58-3.9-4.97-5.99-1.68-2.52-3-5.22-3.87-7.97-.84-2.69-1.28-5.45-1.24-8.28.04-2.86.58-5.79,1.68-8.65,1.06-2.73,2.59-5.45,4.71-8.11,1.79-2.25,3.98-4.47,6.61-6.59,2.52-2.05,5.37-4,8.66-5.85,1.21-.67,2.08-1.61,2.67-2.69l.04-.1c.58-1.11.8-2.36.62-3.6-.04-.13-.04-.27-.04-.4v-.07c-.18-1.18-.29-2.36-.37-3.5-.07-1.24-.07-2.49-.04-3.7.18-4.41,1.1-8.55,2.59-12.28,1.61-4,3.87-7.6,6.57-10.67,2.23-2.52,4.78-4.64,7.45-6.29,2.67-1.65,5.48-2.83,8.36-3.5h0c1.1-.3,2.3.27,2.63,1.28,2.26,6.59,5.11,10.73,10.56,15.41l.22.17c1.35,1.14,3.1,1.68,4.82,1.61s3.4-.71,4.64-1.95l.11-.13c1.24-1.24,1.83-2.86,1.75-4.44s-.8-3.16-2.19-4.37c-4.38-3.73-5.37-6.06-6.68-9.82-1.53-4.34-1.28-8.58.22-12.35,1.02-2.59,2.63-5.01,4.68-7.13,2.01-2.12,4.46-4,7.16-5.45l.11-.07c2.78-1.48,5.77-2.56,8.88-3.1,2.96-.5,5.99-.54,8.95.03,4.16.81,8.25,2.83,11.87,6.33,3.18,3.06,5.99,7.3,8.22,12.89l.04.07c.77,2.19,3.25,3.47,6.17,3.97,1.31.24,2.7.3,4.05.24h.04c1.39-.07,2.7-.3,3.94-.67,2.19-.67,3.91-1.75,4.31-3.13v-.77c0-3.9,2.52-8.04,5.99-11.44,3.8-3.7,8.88-6.63,13.15-7.44,2.7-.5,5.44-.54,8.11-.17,2.78.4,5.48,1.21,8.04,2.39l.22.07c2.59,1.21,4.97,2.76,7.05,4.58,2.05,1.82,3.8,3.87,5.11,6.12,2.08,3.53,3.03,7.57,2.37,11.84-.58,3.73-.73,6.09-4.13,9.82l-.04.03c-1.21,1.31-1.72,2.96-1.57,4.58.15,1.55.91,3.06,2.26,4.14l.22.17c1.42,1.08,3.18,1.51,4.89,1.38,1.68-.13,3.32-.84,4.49-2.09l.18-.24c3.51-3.84,4.64-6.66,6.25-11.51h0Zm80.21,164.66c-.69-1.58-1.1-3.3-1.1-5.11s.4-3.53,1.1-5.11c.73-1.58,1.75-3.03,3.07-4.21l.07-.1c.73-.67,1.57-1.31,2.48-1.82.47-.27.99-.54,1.53-.77v-21.23h-28.34c.04-1.38.04-2.76-.04-4.17-.07-.77.29-1.55,1.02-1.99,2.92-1.85,5.59-3.77,8-5.75h25.79c1.79,0,3.4.67,4.57,1.75s1.9,2.56,1.9,4.21v27.39c.44.2.88.44,1.31.71.77.47,1.5,1.01,2.16,1.61l.11.1c1.31,1.21,2.41,2.69,3.14,4.34.69,1.58,1.1,3.3,1.1,5.11s-.37,3.43-1.06,5.01l-.04.1c-.73,1.65-1.83,3.1-3.14,4.34-1.31,1.21-2.92,2.22-4.71,2.89-1.72.64-3.58,1.01-5.55,1.01s-3.8-.37-5.55-1.01c-1.79-.67-3.4-1.68-4.71-2.89-1.28-1.28-2.37-2.76-3.1-4.41h0Zm41.06-68.13h-38.54c.66-1.31,1.24-2.62,1.75-3.97,1.02-2.62,1.75-5.28,2.19-7.94h34.59c.26-.44.51-.87.8-1.31.55-.81,1.21-1.55,1.9-2.19,1.35-1.24,2.92-2.22,4.71-2.89,1.72-.64,3.58-1.01,5.55-1.01s3.73.34,5.44.98l.11.03c1.79.67,3.36,1.68,4.71,2.89,1.31,1.21,2.41,2.69,3.14,4.34.69,1.58,1.1,3.3,1.1,5.11s-.4,3.5-1.1,5.11c-.73,1.65-1.83,3.13-3.14,4.34s-2.92,2.22-4.71,2.89c-1.72.64-3.58,1.01-5.55,1.01s-3.73-.34-5.44-.98l-.11-.03c-1.79-.67-3.36-1.68-4.71-2.89-.69-.64-1.31-1.35-1.86-2.12l-.07-.1c-.26-.4-.51-.84-.77-1.28h0Zm12.27-32.57h-48.47c-1.24-3.77-3-7.44-5.19-10.93l-.07-.1c-.18-.3-.37-.57-.55-.87h47.85v-38.86c-.37-.2-.73-.4-1.1-.64-.73-.47-1.39-.98-2.01-1.55-1.31-1.21-2.41-2.69-3.14-4.34-.69-1.58-1.1-3.3-1.1-5.11s.4-3.53,1.1-5.11c.73-1.65,1.83-3.1,3.14-4.34,1.31-1.21,2.92-2.22,4.71-2.89,1.72-.64,3.58-1.01,5.55-1.01s3.8.37,5.55,1.01c1.79.67,3.4,1.68,4.71,2.89s2.41,2.69,3.14,4.34c.69,1.58,1.1,3.3,1.1,5.11s-.37,3.43-1.06,5.01l-.04.1c-.73,1.65-1.83,3.1-3.14,4.34-.8.74-1.75,1.41-2.74,1.99-.55.3-1.17.61-1.75.84v44.14c0,1.65-.73,3.13-1.9,4.21-1.21,1.11-2.81,1.78-4.6,1.78h0Zm-50.66-28.73h-16.51c.44-2.22.69-4.44.8-6.66.07-1.78.07-3.53-.04-5.25h9.28v-17.56c-.51-.24-.99-.47-1.46-.77-.88-.5-1.68-1.11-2.45-1.82h0c-1.31-1.21-2.41-2.69-3.14-4.34-.69-1.58-1.1-3.3-1.1-5.08s.4-3.5,1.1-5.11c.73-1.58,1.75-3.03,3.03-4.24l.11-.1c1.31-1.21,2.92-2.22,4.71-2.89,1.72-.64,3.58-1.01,5.55-1.01s3.84.37,5.55,1.01c1.72.67,3.29,1.61,4.6,2.83l.11.07c1.31,1.21,2.37,2.62,3.1,4.24l.04.1c.69,1.58,1.1,3.3,1.1,5.11s-.4,3.53-1.1,5.11c-.73,1.58-1.75,3.03-3.03,4.24l-.11.1c-.69.64-1.46,1.21-2.34,1.75-.44.27-.88.5-1.35.71v23.62c0,1.65-.73,3.13-1.9,4.21-1.17,1.08-2.81,1.75-4.57,1.75h0ZM113.71,63.15c1.72.64,3.58,1.01,5.55,1.01s3.84-.37,5.55-1.01c1.72-.67,3.29-1.61,4.57-2.83l.11-.07c.73-.67,1.42-1.45,1.97-2.29.29-.44.58-.91.84-1.41h23.05v18.34c4.05-1.99,8.44-3.43,12.93-4.27v-20.02c0-1.65-.73-3.13-1.9-4.21s-2.78-1.75-4.57-1.75h-29.73c-.22-.4-.47-.81-.77-1.21-.51-.71-1.1-1.38-1.75-1.99l-.11-.1c-1.31-1.21-2.92-2.22-4.71-2.89-1.72-.64-3.58-1.01-5.55-1.01s-3.76.34-5.44.98l-.11.03c-1.79.67-3.36,1.68-4.71,2.89-1.31,1.21-2.41,2.69-3.14,4.34-.69,1.58-1.1,3.3-1.1,5.11s.4,3.5,1.1,5.11c.73,1.65,1.83,3.13,3.14,4.34,1.42,1.21,3,2.22,4.78,2.89h0Zm74-37.82v45.96c4.31,1.14,8.51,2.96,12.46,5.59l.44.3c0-.1.04-.2.04-.3V25.34c.47-.24.95-.47,1.42-.74.88-.5,1.68-1.11,2.37-1.75,1.31-1.24,2.41-2.69,3.14-4.34.69-1.58,1.1-3.3,1.1-5.11s-.37-3.43-1.06-5.01l-.04-.1c-.73-1.65-1.83-3.1-3.14-4.34-1.31-1.21-2.92-2.22-4.71-2.89-1.72-.64-3.58-1.01-5.55-1.01s-3.8.37-5.55,1.01c-1.79.67-3.4,1.68-4.71,2.89s-2.41,2.69-3.14,4.34c-.69,1.58-1.1,3.3-1.1,5.11s.37,3.43,1.06,5.01l.04.1c.73,1.65,1.83,3.1,3.14,4.34.69.64,1.46,1.21,2.3,1.72l.07.03c.47.27.91.5,1.42.74h0Zm35.32-11.3v67.22c1.75-1.65,3.62-3.1,5.52-4.37,2.37-1.58,4.86-2.89,7.41-3.9V19.95h42.19c.22.34.44.67.69,1.01.51.67,1.06,1.28,1.68,1.85,1.31,1.21,2.92,2.22,4.71,2.89,1.72.64,3.58,1.01,5.55,1.01s3.84-.37,5.55-1.01c1.79-.67,3.4-1.68,4.71-2.89s2.41-2.69,3.14-4.34c.69-1.58,1.1-3.3,1.1-5.11s-.4-3.5-1.1-5.11c-.73-1.65-1.83-3.13-3.14-4.34-1.39-1.21-3-2.22-4.78-2.89-1.72-.64-3.58-1.01-5.52-1.01s-3.73.34-5.44.98l-.11.03c-1.79.67-3.36,1.68-4.71,2.89-.8.74-1.53,1.61-2.16,2.52-.33.5-.66,1.08-.91,1.61h-47.92c-1.79,0-3.4.67-4.57,1.75-1.17,1.11-1.9,2.59-1.9,4.24h0Zm31.19,46.67v9.22c1.31.07,2.67.17,3.98.37,3.07.4,6.06,1.11,8.95,2.09v-5.69h19.07c.26.47.51.91.84,1.35.55.81,1.21,1.55,1.97,2.25h0c1.31,1.21,2.92,2.22,4.71,2.89,1.72.64,3.58,1.01,5.52,1.01s3.8-.37,5.55-1.01c1.72-.67,3.29-1.61,4.6-2.79l.11-.1c1.31-1.21,2.41-2.69,3.14-4.34.69-1.58,1.1-3.3,1.1-5.11s-.4-3.53-1.1-5.11c-.73-1.58-1.75-3.03-3.07-4.24l-.07-.1c-1.31-1.21-2.85-2.19-4.6-2.86l-.11-.03c-1.72-.64-3.58-1.01-5.55-1.01s-3.84.37-5.55,1.01c-1.72.67-3.29,1.61-4.6,2.79l-.11.1c-.69.64-1.31,1.35-1.9,2.15-.29.4-.55.81-.77,1.24h-25.64c-1.79,0-3.4.67-4.57,1.75-1.17,1.04-1.9,2.52-1.9,4.17h0Zm-185.66,57.74c.69,1.58,1.1,3.3,1.1,5.11s-.4,3.53-1.1,5.11c-.73,1.58-1.75,3.03-3.07,4.21l-.07.1c-.73.67-1.57,1.31-2.48,1.82-.47.27-.99.54-1.53.77v21.23h23.92v1.04c0,.81.04,1.65.07,2.52.07.74-.29,1.48-.99,1.95-3.14,2.05-5.95,4.21-8.51,6.39h-20.89c-1.79,0-3.4-.67-4.57-1.75s-1.9-2.56-1.9-4.21v-27.39c-.44-.2-.88-.44-1.31-.71-.77-.47-1.5-1.01-2.16-1.61l-.11-.1c-1.31-1.21-2.41-2.69-3.14-4.34-.69-1.58-1.1-3.3-1.1-5.11s.37-3.43,1.06-5.01l.04-.1c.73-1.65,1.83-3.1,3.14-4.34,1.31-1.21,2.92-2.22,4.71-2.89,1.72-.64,3.58-1.01,5.55-1.01s3.8.37,5.55,1.01c1.79.67,3.4,1.68,4.71,2.89,1.24,1.28,2.34,2.76,3.07,4.41h0Zm-41.06,68.13h34.33c-.58,1.21-1.1,2.46-1.57,3.67-1.02,2.73-1.75,5.45-2.19,8.21h-30.57c-.26.44-.51.87-.8,1.31-.55.81-1.21,1.55-1.9,2.19-1.35,1.24-2.92,2.22-4.71,2.89-1.72.64-3.58,1.01-5.55,1.01s-3.73-.34-5.44-.98l-.11-.03c-1.79-.67-3.36-1.68-4.71-2.89-1.31-1.21-2.41-2.69-3.14-4.34-.69-1.58-1.1-3.3-1.1-5.11s.4-3.5,1.1-5.11c.73-1.65,1.83-3.13,3.14-4.34s2.92-2.22,4.71-2.89c1.72-.64,3.58-1.01,5.55-1.01s3.73.34,5.44.98l.11.03c1.79.67,3.36,1.68,4.71,2.89.69.64,1.31,1.35,1.86,2.12l.07.1c.26.44.51.87.77,1.31h0Zm-12.27,32.57h44.67c1.39,4.07,3.4,8.01,5.95,11.74v.03l.07.13H21.66v38.86c.37.2.73.4,1.1.64.73.47,1.39.98,2.01,1.55,1.31,1.21,2.41,2.69,3.14,4.34.69,1.58,1.1,3.3,1.1,5.11s-.4,3.53-1.1,5.11c-.73,1.65-1.83,3.1-3.14,4.34-1.31,1.21-2.92,2.22-4.71,2.89-1.72.64-3.58,1.01-5.55,1.01s-3.8-.37-5.55-1.01c-1.79-.67-3.4-1.68-4.71-2.89-1.31-1.31-2.41-2.79-3.14-4.41-.69-1.58-1.1-3.3-1.1-5.11s.37-3.43,1.06-5.01l.04-.1c.73-1.65,1.83-3.1,3.14-4.34.8-.74,1.75-1.41,2.74-1.99.55-.3,1.17-.61,1.75-.84v-44.14c0-1.65.73-3.13,1.9-4.21,1.21-1.04,2.81-1.72,4.6-1.72h0Zm50.66,28.73h12.05c-.4,2.22-.62,4.41-.69,6.56-.07,1.82-.04,3.6.11,5.35h-5v17.56c.51.24.99.47,1.46.77.88.5,1.68,1.11,2.45,1.82h0c1.31,1.21,2.41,2.69,3.14,4.34.69,1.58,1.1,3.3,1.1,5.11s-.4,3.5-1.1,5.11c-.73,1.58-1.75,3.03-3.03,4.24l-.11.1c-1.31,1.21-2.92,2.22-4.71,2.89-1.72.64-3.58,1.01-5.55,1.01s-3.84-.37-5.55-1.01c-1.72-.67-3.29-1.61-4.6-2.83l-.11-.07c-1.31-1.21-2.37-2.62-3.1-4.24l-.04-.1c-.69-1.58-1.1-3.3-1.1-5.11s.4-3.53,1.1-5.11c.73-1.58,1.75-3.03,3.03-4.24l.11-.1c.69-.64,1.46-1.21,2.34-1.75.44-.27.88-.5,1.35-.71v-23.62c0-1.65.73-3.13,1.9-4.21,1.17-1.14,2.78-1.78,4.57-1.78h0Zm175.29,140.23v-47.07c-4.57-1.31-8.88-3.43-12.82-6.43l-.07-.07v53.6c-.47.24-.95.47-1.42.74-.88.5-1.68,1.11-2.37,1.75-1.31,1.24-2.41,2.69-3.14,4.34-.69,1.58-1.1,3.3-1.1,5.11s.37,3.43,1.06,5.01l.04.1c.73,1.65,1.83,3.1,3.14,4.34,1.31,1.21,2.92,2.22,4.71,2.89,1.72.64,3.58,1.01,5.55,1.01s3.8-.37,5.55-1.01c1.79-.67,3.4-1.68,4.71-2.89s2.41-2.69,3.14-4.34c.69-1.58,1.1-3.3,1.1-5.11s-.37-3.43-1.06-5.01l-.04-.1c-.73-1.65-1.83-3.1-3.14-4.34-.69-.64-1.46-1.21-2.3-1.72l-.11-.07c-.47-.27-.95-.5-1.42-.74h0Zm-35.36,11.3v-67.83c-1.53,1.45-3.14,2.73-4.82,3.9-2.59,1.82-5.3,3.26-8.11,4.41v53.63h-42.19c-.22-.34-.44-.67-.69-1.01-.51-.67-1.06-1.28-1.68-1.85-1.31-1.21-2.92-2.22-4.71-2.89-1.72-.64-3.58-1.01-5.55-1.01s-3.84.37-5.55,1.01c-1.79.67-3.36,1.68-4.71,2.89-1.31,1.21-2.41,2.69-3.14,4.34-.69,1.58-1.1,3.3-1.1,5.11s.4,3.5,1.1,5.11c.73,1.65,1.83,3.13,3.14,4.34s2.92,2.22,4.71,2.89c1.72.64,3.58,1.01,5.55,1.01s3.73-.34,5.44-.98l.11-.03c1.79-.67,3.36-1.68,4.71-2.89.8-.74,1.53-1.61,2.16-2.52.33-.5.66-1.08.91-1.61h47.92c1.79,0,3.4-.67,4.57-1.75,1.21-1.14,1.94-2.62,1.94-4.27h0Zm-31.19-46.67v-9.79c-2.85-.13-5.7-.54-8.47-1.18-1.5-.34-3-.77-4.46-1.24v6.29h-19.07c-.26-.47-.51-.91-.84-1.35-.55-.81-1.21-1.55-1.97-2.25h0c-1.31-1.21-2.92-2.22-4.71-2.89-1.72-.64-3.58-1.01-5.52-1.01s-3.8.37-5.55,1.01c-1.72.67-3.29,1.61-4.6,2.79l-.11.07c-1.31,1.21-2.41,2.69-3.14,4.34-.69,1.58-1.1,3.3-1.1,5.11s.4,3.53,1.1,5.11c.73,1.58,1.75,3.03,3.07,4.24l.07.1c1.31,1.21,2.85,2.19,4.6,2.86l.11.03c1.72.64,3.58,1.01,5.55,1.01s3.8-.37,5.55-1.01c1.72-.67,3.29-1.61,4.6-2.79l.11-.1c.69-.64,1.31-1.35,1.9-2.15.29-.4.55-.81.77-1.24h25.64c1.79,0,3.4-.67,4.57-1.75,1.17-1.08,1.9-2.56,1.9-4.21h0Z" />
</svg>